<svg xmlns="http://www.w3.org/2000/svg" xmlns:xlink="http://www.w3.org/1999/xlink" width="12.039999008178711" height="12.91200065612793" viewBox="0 0 12.039999008178711 12.91200065612793" fill="none">
<rect x="0" y="0" width="0" height="0" fill="rgba(249, 249, 249, 1)" />
<g >
<path     fill="#2A57EB"  d="M4.32 6.468Q4.32 6.468 4.32 6.978Q4.32 7.488 4.992 8.052Q5.664 8.616 6.42 8.616Q7.176 8.616 7.836 8.172Q8.496 7.728 8.904 7.728Q9.624 7.728 10.656 9Q11.208 9.696 11.208 10.248Q11.208 11.16 9.888 11.952Q8.52 12.912 6.528 12.912Q4.296 12.912 2.232 11.304Q1.248 10.536 0.624 9.252Q-3.57628e-07 7.968 -3.57628e-07 6.42Q-3.57628e-07 4.872 0.624 3.612Q1.248 2.352 2.232 1.584Q4.224 0 6.48 0Q7.392 0 8.256 0.252Q9.12 0.504 9.528 0.743999L9.912 0.984Q10.344 1.272 10.584 1.44Q11.208 1.92 11.208 2.532Q11.208 3.144 10.704 3.912Q9.84 5.232 9.048 5.232Q8.592 5.232 7.752 4.704Q7.32 4.296 6.516 4.296Q5.712 4.296 5.016 4.872Q4.32 5.448 4.32 6.468Z">
</path>
</g>
<g >
<path     fill="#FFFFFF"  d="M11.952 6.568Q12.016 6.688 12.028 6.784Q12.04 6.88 12.04 7.064L12.04 11.504Q12.04 12.056 11.736 12.152Q11.584 12.2 11.352 12.2Q11.12 12.2 10.984 12.16Q10.848 12.12 10.776 12.064Q10.704 12.008 10.664 11.904Q10.624 11.768 10.624 11.488L10.624 8.808Q10.424 9.056 10.04 9.596Q9.656 10.136 9.552 10.272Q9.448 10.408 9.408 10.46Q9.368 10.512 9.212 10.604Q9.056 10.696 8.876 10.696Q8.696 10.696 8.548 10.612Q8.4 10.528 8.336 10.448L8.272 10.36Q8.112 10.16 7.64 9.508Q7.168 8.856 7.128 8.808L7.128 11.504Q7.128 11.688 7.116 11.78Q7.104 11.872 7.04 11.984Q6.92 12.2 6.416 12.2Q5.928 12.2 5.808 11.984Q5.744 11.872 5.732 11.776Q5.72 11.68 5.72 11.488L5.72 7.048Q5.72 6.864 5.732 6.772Q5.744 6.68 5.808 6.56Q5.928 6.352 6.432 6.352Q6.648 6.352 6.804 6.404Q6.96 6.456 7.008 6.512L7.056 6.56L8.872 8.944Q10.232 7.144 10.688 6.568Q10.824 6.352 11.332 6.352Q11.84 6.352 11.952 6.568Z">
</path>
</g>
</svg>
